<?xml version="1.0" encoding="UTF-8" standalone="no"?>
<!DOCTYPE svg PUBLIC "-//W3C//DTD SVG 1.1//EN" "http://www.w3.org/Graphics/SVG/1.1/DTD/svg11.dtd">
<svg xmlns:dc="http://purl.org/dc/elements/1.1/" xmlns="http://www.w3.org/2000/svg" version="1.1" xmlns:xl="http://www.w3.org/1999/xlink" viewBox="447.889 370.1945 163.14128 123.69171" width="163.14128" height="123.69171">
  <defs/>
  <metadata> Produced by OmniGraffle 7.18.1\n2020-12-12 02:38:01 +0000</metadata>
  <g id="Canvas_1" stroke-opacity="1" stroke="none" stroke-dasharray="none" fill="none" fill-opacity="1">
    <title>Canvas 1</title>
    <g id="Canvas_1_Layer_1">
      <title>Layer 1</title>
      <g id="Group_2">
        <g id="Graphic_17">
          <path d="M 505.6535 416.52516 C 505.6535 405.7022 514.4272 396.9285 525.2501 396.92853 C 536.0731 396.9285 544.8468 405.7022 544.8467 416.52516 C 544.8468 427.3481 536.0731 436.1218 525.2501 436.1218 C 514.4272 436.1218 505.6535 427.3481 505.6535 416.52516" stroke="#fc0006" stroke-linecap="round" stroke-linejoin="round" stroke-width="7.838661"/>
        </g>
        <g id="Graphic_16">
          <path d="M 501.0005 440.7748 C 499.4699 439.2442 496.9883 439.2442 495.4577 440.7748 L 449.03697 487.1955 C 447.50637 488.7261 447.50637 491.20765 449.03697 492.73825 C 450.56757 494.26884 453.04917 494.26884 454.5798 492.73825 L 501.0005 446.31755 C 502.5311 444.78695 502.5311 442.30537 501.0005 440.7748 Z" fill="red"/>
        </g>
        <g id="Graphic_15">
          <path d="M 517.6779 449.03983 C 516.1473 447.50924 513.6657 447.50924 512.1351 449.03983 L 476.6716 484.50334 C 475.141 486.0339 475.141 488.5155 476.6716 490.0461 C 478.2022 491.5767 480.6838 491.5767 482.2144 490.0461 L 517.6779 454.5826 C 519.2085 453.052 519.2085 450.57043 517.6779 449.03983 Z" fill="red"/>
        </g>
        <g id="Graphic_14">
          <path d="M 493.9928 424.2257 C 492.4622 422.6951 489.9806 422.6951 488.45 424.2257 L 452.42197 460.2537 C 450.89137 461.7843 450.89137 464.2659 452.42197 465.7965 C 453.9526 467.3271 456.4342 467.3271 457.9648 465.7965 L 493.9928 429.7685 C 495.5234 428.2379 495.5234 425.7563 493.9928 424.2257 Z" fill="red"/>
        </g>
        <g id="Graphic_13">
          <path d="M 559.2479 433.3107 C 557.978 441.32795 550.4494 446.79784 542.4321 445.52803" stroke="#3ad" stroke-linecap="round" stroke-linejoin="round" stroke-width="7.838661"/>
        </g>
        <g id="Graphic_12">
          <path d="M 558.8621 396.23216 L 559.6595 396.23216 C 561.6039 396.23216 563.1801 397.8084 563.1801 399.75277 C 563.1801 401.69715 561.6039 403.2734 559.6595 403.2734 L 558.8621 403.2734 C 556.9177 403.2734 555.3414 401.69715 555.3414 399.75277 C 555.3414 397.8084 556.9177 396.23216 558.8621 396.23216 Z" fill="#3ad"/>
        </g>
        <g id="Graphic_11">
          <path d="M 559.2608 434.72417 C 561.4254 434.72417 563.1801 432.9694 563.1801 430.80484 L 563.1801 414.849 C 563.1801 412.6844 561.4254 410.92965 559.2608 410.92965 C 557.0962 410.92965 555.3414 412.6844 555.3414 414.849 L 555.3414 430.80484 C 555.3414 432.9694 557.0962 434.72417 559.2608 434.72417 Z" fill="#3ad"/>
        </g>
        <g id="Graphic_10">
          <path d="M 483.6793 388.8113 C 489.4191 394.55103 498.725 394.55103 504.4647 388.8113" stroke="#3ad" stroke-linecap="round" stroke-linejoin="round" stroke-width="7.838661"/>
        </g>
        <g id="Graphic_9">
          <path d="M 535.6428 378.4186 C 529.9031 372.67888 520.5971 372.67888 514.8574 378.4186" stroke="#3ad" stroke-linecap="round" stroke-linejoin="round" stroke-width="7.838661"/>
        </g>
        <g id="Graphic_8">
          <path d="M 502.6171 390.6589 C 504.1477 392.1895 506.6293 392.1895 508.1599 390.6589 L 516.4741 382.34474 C 518.0047 380.81415 518.0047 378.33256 516.4741 376.80197 C 514.9435 375.27138 512.4619 375.27138 510.9313 376.80197 L 502.6171 385.1161 C 501.0865 386.6467 501.0865 389.1283 502.6171 390.6589 Z" fill="#3ad"/>
        </g>
        <g id="Graphic_7">
          <path d="M 483.6793 388.8113 C 489.4191 394.55103 489.4191 403.85697 483.6793 409.5967" stroke="#3ad" stroke-linecap="round" stroke-linejoin="round" stroke-width="7.838661"/>
        </g>
        <g id="Graphic_6">
          <path d="M 485.5269 407.7491 C 487.0575 409.2797 487.0575 411.7613 485.5269 413.2919 L 461.5083 437.31054 C 459.9777 438.84114 457.4961 438.84114 455.9655 437.31054 C 454.4349 435.77995 454.4349 433.29837 455.9655 431.7678 L 479.9842 407.7491 C 481.5148 406.2185 483.9963 406.2185 485.5269 407.7491 Z" fill="#3ad"/>
        </g>
        <g id="Graphic_5">
          <path d="M 607.111 403.91183 C 599.462 396.26283 587.0605 396.26283 579.4115 403.91183" stroke="#fc0006" stroke-linecap="round" stroke-linejoin="round" stroke-width="7.838661"/>
        </g>
        <g id="Graphic_4">
          <path d="M 579.4115 403.6961 C 571.7625 411.34506 571.7625 423.7466 579.4115 431.39557" stroke="#fc0006" stroke-linecap="round" stroke-linejoin="round" stroke-width="7.838661"/>
        </g>
        <g id="Graphic_3">
          <path d="M 579.4115 431.43834 C 587.0605 439.08733 599.462 439.08733 607.111 431.43834" stroke="#fc0006" stroke-linecap="round" stroke-linejoin="round" stroke-width="7.838661"/>
        </g>
      </g>
    </g>
  </g>
</svg>
