<?xml version="1.0" encoding="UTF-8" standalone="no"?>
<!DOCTYPE svg PUBLIC "-//W3C//DTD SVG 1.1//EN" "http://www.w3.org/Graphics/SVG/1.1/DTD/svg11.dtd">
<svg xmlns="http://www.w3.org/2000/svg" xmlns:xl="http://www.w3.org/1999/xlink" version="1.1" viewBox="1380 1260 389 303" width="389pt" height="303pt" xmlns:dc="http://purl.org/dc/elements/1.1/"><metadata> Produced by OmniGraffle 6.6.2 <dc:date>2017-10-03 19:32:58 +0000</dc:date></metadata><defs/><g stroke="none" stroke-opacity="1" stroke-dasharray="none" fill="none" fill-opacity="1"><title>Canvas 1</title><g><title>Layer 2</title><path d="M 1523.8478 1401.42136 C 1523.84775 1379.3299 1541.7563 1361.42134 1563.8478 1361.4214 C 1585.9392 1361.42134 1603.8478 1379.3299 1603.8477 1401.42136 C 1603.8478 1423.5128 1585.9392 1441.4214 1563.8478 1441.4213 C 1541.7563 1441.4214 1523.84775 1423.5128 1523.8478 1401.42136" stroke="#fc0006" stroke-linecap="round" stroke-linejoin="round" stroke-width="16"/><path d="M 1514.3503 1450.9188 L 1514.3503 1450.9188 C 1511.2261 1447.7946 1506.1608 1447.7946 1503.0366 1450.9188 L 1408.2843 1545.6711 C 1405.1601 1548.7953 1405.1601 1553.8607 1408.2843 1556.98485 L 1408.2843 1556.98485 C 1411.4085 1560.109 1416.4738 1560.109 1419.598 1556.98485 L 1514.3503 1462.2325 C 1517.4745 1459.10835 1517.4745 1454.043 1514.3503 1450.9188 Z" fill="red"/><path d="M 1548.3916 1467.7892 L 1548.3916 1467.7892 C 1545.2674 1464.665 1540.2021 1464.665 1537.0779 1467.7892 L 1464.69105 1540.176 C 1461.5669 1543.3002 1461.5669 1548.3656 1464.69105 1551.4898 L 1464.69105 1551.4898 C 1467.81525 1554.61395 1472.8806 1554.61395 1476.0048 1551.4898 L 1548.3916 1479.1029 C 1551.5158 1475.9787 1551.5158 1470.9134 1548.3916 1467.7892 Z" fill="red"/><path d="M 1500.0464 1417.1395 L 1500.0464 1417.1395 C 1496.9222 1414.0153 1491.8569 1414.0153 1488.7327 1417.1395 L 1415.1936 1490.6786 C 1412.0694 1493.8028 1412.0694 1498.8681 1415.1936 1501.9923 L 1415.1936 1501.9923 C 1418.3178 1505.1165 1423.3831 1505.1165 1426.5073 1501.9923 L 1500.0464 1428.4532 C 1503.1706 1425.329 1503.1706 1420.2637 1500.0464 1417.1395 Z" fill="red"/><path d="M 1633.2428 1435.6834 C 1630.6509 1452.0479 1615.2836 1463.2129 1598.9191 1460.621" stroke="#3ad" stroke-linecap="round" stroke-linejoin="round" stroke-width="16"/><path d="M 1632.4553 1360 L 1634.083 1360 C 1638.0518 1360 1641.2691 1363.21735 1641.2691 1367.18615 L 1641.2691 1367.18615 C 1641.2691 1371.15495 1638.0518 1374.3723 1634.083 1374.3723 L 1632.4553 1374.3723 C 1628.4865 1374.3723 1625.2691 1371.15495 1625.2691 1367.18615 L 1625.2691 1367.18615 C 1625.2691 1363.21735 1628.4865 1360 1632.4553 1360 Z" fill="#3ad"/><path d="M 1633.2691 1438.5685 L 1633.2691 1438.5685 C 1637.6874 1438.5685 1641.2691 1434.9868 1641.2691 1430.5685 L 1641.2691 1398 C 1641.2691 1393.5817 1637.6874 1390 1633.2691 1390 L 1633.2691 1390 C 1628.8508 1390 1625.2691 1393.5817 1625.2691 1398 L 1625.2691 1430.5685 C 1625.2691 1434.9868 1628.8508 1438.5685 1633.2691 1438.5685 Z" fill="#3ad"/><path d="M 1478.99495 1344.8528 C 1490.7107 1356.56854 1509.7056 1356.56854 1521.4214 1344.8528" stroke="#3ad" stroke-linecap="round" stroke-linejoin="round" stroke-width="16"/><path d="M 1585.061 1323.6396 C 1573.3452 1311.9239 1554.3503 1311.9239 1542.6346 1323.6396" stroke="#3ad" stroke-linecap="round" stroke-linejoin="round" stroke-width="16"/><path d="M 1517.6501 1348.62405 L 1517.6501 1348.62405 C 1520.7743 1351.74824 1525.8396 1351.74824 1528.9638 1348.62405 L 1545.9344 1331.6535 C 1549.0586 1328.5293 1549.0586 1323.464 1545.9344 1320.3398 L 1545.9344 1320.3398 C 1542.8102 1317.2156 1537.7449 1317.2156 1534.6207 1320.3398 L 1517.6501 1337.31034 C 1514.5259 1340.4345 1514.5259 1345.49986 1517.6501 1348.62405 Z" fill="#3ad"/><path d="M 1478.99495 1344.8528 C 1490.7107 1356.56854 1490.7107 1375.5635 1478.99495 1387.2792" stroke="#3ad" stroke-linecap="round" stroke-linejoin="round" stroke-width="16"/><path d="M 1482.7662 1383.508 L 1482.7662 1383.508 C 1485.8904 1386.6322 1485.8904 1391.6975 1482.7662 1394.8217 L 1433.7401 1443.8478 C 1430.6159 1446.972 1425.5506 1446.972 1422.4264 1443.8478 L 1422.4264 1443.8478 C 1419.3022 1440.7236 1419.3022 1435.65825 1422.4264 1432.53405 L 1471.4525 1383.508 C 1474.5767 1380.3838 1479.642 1380.3838 1482.7662 1383.508 Z" fill="#3ad"/><path d="M 1722.2103 1438.7494 C 1702.7048 1449.1206 1678.4848 1441.7159 1668.1136 1422.2103 C 1657.7423 1402.7048 1665.1471 1378.4848 1684.6526 1368.11355 C 1696.6121 1361.7546 1710.9772 1361.87995 1722.8238 1368.4467" stroke="#fc0006" stroke-linecap="round" stroke-linejoin="round" stroke-width="16"/></g></g></svg>
