<?xml version="1.0" encoding="UTF-8" standalone="no"?>
<!DOCTYPE svg PUBLIC "-//W3C//DTD SVG 1.1//EN" "http://www.w3.org/Graphics/SVG/1.1/DTD/svg11.dtd">
<svg xmlns:dc="http://purl.org/dc/elements/1.1/" xmlns="http://www.w3.org/2000/svg" xmlns:xl="http://www.w3.org/1999/xlink" version="1.1" viewBox="1403.9412 1309.6213 135.23148 105.98355" width="135.23148" height="105.98355">
  <defs/>
  <metadata> Produced by OmniGraffle 7.17.4\n2020-09-07 18:32:15 +0000</metadata>
  <g id="Canvas_1" stroke="none" fill-opacity="1" stroke-opacity="1" stroke-dasharray="none" fill="none">
    <title>Canvas 1</title>
    <g id="Canvas_1_Layer_1">
      <title>Layer 1</title>
      <g id="Group_2">
        <g id="Group_3">
          <g id="Graphic_16">
            <path d="M 1453.5678 1349.8209 C 1453.5678 1340.8974 1460.8016 1333.6635 1469.7252 1333.6635 C 1478.6487 1333.6635 1485.8826 1340.8974 1485.8825 1349.8209 C 1485.8826 1358.7444 1478.6487 1365.9783 1469.7252 1365.9783 C 1460.8016 1365.9783 1453.5678 1358.7444 1453.5678 1349.8209" stroke="#fc0006" stroke-linecap="round" stroke-linejoin="round" stroke-width="6.4629595"/>
          </g>
          <g id="Graphic_15">
            <path d="M 1449.7314 1369.8146 C 1448.4694 1368.5527 1446.4234 1368.5527 1445.1614 1369.8146 L 1406.8876 1408.0884 C 1405.6257 1409.3504 1405.6257 1411.3965 1406.8876 1412.6584 C 1408.1496 1413.9204 1410.1957 1413.9204 1411.4576 1412.6584 L 1449.7314 1374.3846 C 1450.9934 1373.1227 1450.9934 1371.0766 1449.7314 1369.8146 Z" fill="red"/>
          </g>
          <g id="Graphic_14">
            <path d="M 1463.4819 1376.6292 C 1462.2199 1375.3672 1460.1738 1375.3672 1458.9119 1376.6292 L 1429.6723 1405.8687 C 1428.4103 1407.1307 1428.4103 1409.1768 1429.6723 1410.4388 C 1430.9343 1411.7007 1432.9803 1411.7007 1434.2423 1410.4388 L 1463.4819 1381.1992 C 1464.7438 1379.9372 1464.7438 1377.8912 1463.4819 1376.6292 Z" fill="red"/>
          </g>
          <g id="Graphic_13">
            <path d="M 1443.9536 1356.17 C 1442.6916 1354.908 1440.6455 1354.908 1439.3836 1356.17 L 1409.6785 1385.875 C 1408.4166 1387.137 1408.4166 1389.183 1409.6785 1390.445 C 1410.9405 1391.707 1412.9866 1391.707 1414.2485 1390.445 L 1443.9536 1360.74 C 1445.2155 1359.478 1445.2155 1357.432 1443.9536 1356.17 Z" fill="red"/>
          </g>
          <g id="Graphic_12">
            <path d="M 1497.7562 1363.6605 C 1496.7093 1370.2707 1490.5019 1374.7807 1483.8917 1373.7337" stroke="#3ad" stroke-linecap="round" stroke-linejoin="round" stroke-width="6.4629595"/>
          </g>
          <g id="Graphic_11">
            <path d="M 1497.4381 1333.0894 L 1498.0956 1333.0894 C 1499.6988 1333.0894 1500.9984 1334.389 1500.9984 1335.9921 C 1500.9984 1337.5952 1499.6988 1338.8948 1498.0956 1338.8948 L 1497.4381 1338.8948 C 1495.835 1338.8948 1494.5354 1337.5952 1494.5354 1335.9921 C 1494.5354 1334.389 1495.835 1333.0894 1497.4381 1333.0894 Z" fill="#3ad"/>
          </g>
          <g id="Graphic_10">
            <path d="M 1497.7669 1364.826 C 1499.5516 1364.826 1500.9984 1363.3791 1500.9984 1361.5944 L 1500.9984 1348.4389 C 1500.9984 1346.6542 1499.5516 1345.2074 1497.7669 1345.2074 C 1495.9822 1345.2074 1494.5354 1346.6542 1494.5354 1348.4389 L 1494.5354 1361.5944 C 1494.5354 1363.3791 1495.9822 1364.826 1497.7669 1364.826 Z" fill="#3ad"/>
          </g>
          <g id="Graphic_9">
            <path d="M 1435.4501 1326.9709 C 1440.1825 1331.7033 1447.8552 1331.7033 1452.5877 1326.9709" stroke="#3ad" stroke-linecap="round" stroke-linejoin="round" stroke-width="6.4629595"/>
          </g>
          <g id="Graphic_8">
            <path d="M 1478.294 1318.4021 C 1473.5615 1313.6697 1465.8888 1313.6697 1461.1564 1318.4021" stroke="#3ad" stroke-linecap="round" stroke-linejoin="round" stroke-width="6.4629595"/>
          </g>
          <g id="Graphic_7">
            <path d="M 1451.0643 1328.4942 C 1452.3263 1329.7562 1454.3723 1329.7562 1455.6343 1328.4942 L 1462.4893 1321.6392 C 1463.7513 1320.3772 1463.7513 1318.3312 1462.4893 1317.0692 C 1461.2274 1315.8072 1459.1813 1315.8072 1457.9193 1317.0692 L 1451.0643 1323.9242 C 1449.8023 1325.1862 1449.8023 1327.2322 1451.0643 1328.4942 Z" fill="#3ad"/>
          </g>
          <g id="Graphic_6">
            <path d="M 1435.4501 1326.9709 C 1440.1825 1331.7033 1440.1825 1339.376 1435.4501 1344.1084" stroke="#3ad" stroke-linecap="round" stroke-linejoin="round" stroke-width="6.4629595"/>
          </g>
          <g id="Graphic_5">
            <path d="M 1436.9735 1342.585 C 1438.2355 1343.847 1438.2355 1345.8931 1436.9735 1347.155 L 1417.1701 1366.9584 C 1415.9081 1368.2204 1413.8621 1368.2204 1412.6001 1366.9584 C 1411.3381 1365.6964 1411.3381 1363.6504 1412.6001 1362.3884 L 1432.4035 1342.585 C 1433.6655 1341.3231 1435.7115 1341.3231 1436.9735 1342.585 Z" fill="#3ad"/>
          </g>
          <g id="Graphic_4">
            <path d="M 1533.6933 1364.899 C 1525.8144 1369.0883 1516.031 1366.0973 1511.8418 1358.2183 C 1507.6525 1350.3393 1510.6435 1340.556 1518.5225 1336.3667 C 1523.3533 1333.7981 1529.1559 1333.8487 1533.9412 1336.5013" stroke="#fc0006" stroke-linecap="round" stroke-linejoin="round" stroke-width="6.4629595"/>
          </g>
        </g>
      </g>
    </g>
  </g>
</svg>
